<svg width="429" height="261" viewBox="0 0 429 261" fill="none" xmlns="http://www.w3.org/2000/svg">
<g id="teaCup">
<g id="plate">
<path d="M84 172L320.5 167C373.215 166.042 402.586 181.925 408.5 195.746C414.5 205 411 209.5 408.5 212C389.265 231.235 369 237.5 315 251.5C261 265.5 142.5 255.5 108 251.5C73.5 247.5 12.2435 231 4.50001 216.5C-1.69475 204.9 7.08116 195.667 12.2435 192.5C25.4805 177.547 63.0213 172.534 84 172Z" fill="#B8CCE4"/>
<path d="M12.2435 192.5C25.4805 177.547 63.0213 172.534 84 172L320.5 167C373.215 166.042 402.586 181.925 408.5 195.746M12.2435 192.5C8.96995 196.198 7.18278 200.504 7.50001 205.5C9.10001 230.7 122.833 246.667 179.5 251.5C248 251.5 389.7 242.3 408.5 205.5C409.991 202.581 409.99 199.229 408.5 195.746M12.2435 192.5C7.08116 195.667 -1.69475 204.9 4.50001 216.5C12.2435 231 73.5 247.5 108 251.5C142.5 255.5 261 265.5 315 251.5C369 237.5 389.265 231.235 408.5 212C411 209.5 414.5 205 408.5 195.746" stroke="black" stroke-width="4"/>
</g>
<g id="plateReflection">
<path d="M33.8531 200.403C21.8335 182.989 71.2217 179.572 97.4182 180.04L124 232C98.9592 228.723 45.8727 217.816 33.8531 200.403Z" fill="white" fill-opacity="0.2"/>
<path d="M389.5 200.403C383.1 219.525 313.5 229.435 279.5 232C267.167 231.167 251.9 227.2 289.5 218C336.5 206.5 350 203.5 363 194.5C373.4 187.3 338.333 179.5 319.5 176.5C345.5 176.5 395.9 181.281 389.5 200.403Z" fill="white" fill-opacity="0.2"/>
</g>
<g id="cup">
<path d="M62 29.709C62 -1.79102 333.5 -9.79102 336 29.709C348.8 129.709 296.667 215.833 268.5 244C222.1 256 157.833 249 131.5 244C68.3 172.4 59 69.709 62 29.709Z" fill="#B8CCE4"/>
<path d="M62 29.709C62 -1.79102 333.5 -9.79102 336 29.709M62 29.709C59 69.709 68.3 172.4 131.5 244C157.833 249 222.1 256 268.5 244C296.667 215.833 348.8 129.709 336 29.709M62 29.709C62 56.709 333.5 60.709 336 29.709" stroke="black" stroke-width="5"/>
</g>
<path id="handle" d="M403 130.5C426.2 70.1 368.221 63.8333 337.887 68L337.535 46C368.368 40.6667 432 47.8 426 117C422.167 147.667 392.7 207.4 301.5 199L308 187L313.5 176.5C357.9 191.7 391.5 151.833 403 130.5Z" fill="#B8CCE4" stroke="black" stroke-width="5"/>
<g id="cupReflection" opacity="0.5">
<path d="M134.572 72C124.891 74.6333 115.749 73.0972 112.387 72C108.623 109.744 133.227 193.06 146 230C132.555 172.506 132.779 100.711 134.572 72Z" fill="#D9D9D9"/>
<path d="M344.5 63V53C371.5 53 423.1 64.6 413.5 111C420.7 69 370.5 61.5 344.5 63Z" fill="#D9D9D9"/>
<path d="M295.705 105.724C313.973 99.7287 322.18 80.7433 324 72C322.032 140.331 277.971 208.17 255.6 234.303C283.796 198.83 293.885 132.995 295.705 105.724Z" fill="#D9D9D9"/>
<path d="M314 188L310 195C334.5 195.167 388.5 186.1 408.5 148.5C373.7 190.9 331 192.5 314 188Z" fill="#D9D9D9"/>
<path d="M327 53.5C272.6 81.1 136.333 65 75 53.5C74.5 76.5 80.1 133.6 106.5 178C92 154 64.2 93.8 69 45H75C136.2 65.4 301 69.5 327 45V49.25V53.5Z" fill="#D9D9D9"/>
<path d="M322.5 23.5C284.5 5.1 178.667 8.5 130.5 12.5C213.5 8 260 14 293 18.5C319.4 22.1 324.167 30.1667 319 32C306.5 35.8333 287.5 42.3 311.5 37.5C335.5 32.7 328.833 26.1667 322.5 23.5Z" fill="#D9D9D9"/>
</g>
</g>
<g id="tea">
<path d="M136.5 229.5C112.396 207.767 89.8854 145.533 81.3093 116.07C81.0752 115.685 80.9702 115.328 81 115C71.8046 83 342.4 68.6343 320 123C318.5 133.5 288.833 198 269.5 229.5C223.1 243.1 161.5 235.167 136.5 229.5Z" fill="#6C5036"/>
<path d="M81 115C89.3333 144 112.1 207.5 136.5 229.5C161.5 235.167 223.1 243.1 269.5 229.5C288.833 198 318.5 133.5 320 123M81 115C80 126 230.8 170.6 320 123M81 115C71.8046 83 342.4 68.6343 320 123" stroke="black"/>
</g>
<g id="milk">
<path id="milk_2" d="M319.639 122.185C230.439 169.785 79.6389 125.185 80.6389 114.185C76.8055 101.352 69.9388 67.3851 71.1388 48.1851C72.6388 24.1851 230.639 5.68507 323.139 35.1851C329.639 38.1851 329.639 45.1851 329.639 45.1851C331.395 59.5599 329.484 90.0698 319.639 122.185Z" fill="white"/>
<path id="cup lip" d="M62 29.709C62 56.709 333.5 60.709 336 29.709" stroke="black" stroke-width="5"/>
</g>
</svg>
